<svg width="777.80549" height="639.55194" xmlns="http://www.w3.org/2000/svg">
 <g>
  <title>Layer 1</title>
  <path d="m730.43519,594.84604c13.35843,-15.199 76.26477,-90.00934 31.55383,-102.34248c-33.58077,-9.26295 -37.322,41.69916 -36.1949,75.89894c-5.37716,-23.04158 -15.813,-49.95781 -34.14772,-38.0819c-26.42393,17.11543 23.08826,54.99167 36.02171,64.28979c0.21236,1.89073 0.35246,2.94155 0.35246,2.94155s0.5305,-0.57846 1.47618,-1.643c0.73881,0.51734 1.14973,0.79519 1.14973,0.79519s-0.06874,-0.67026 -0.21129,-1.85809z" fill="#e6e6e6" id="svg_1"/>
  <path d="m53.18421,636.45276c15.3,-17.40808 87.3493,-103.09155 36.14,-117.21722c-38.46149,-10.60926 -42.74646,47.75982 -41.45557,86.93029c-6.15869,-26.3905 -18.11126,-57.21881 -39.11084,-43.61682c-30.26446,19.603 26.444,62.98432 41.25721,73.63385c0.24322,2.16553 0.40368,3.36908 0.40368,3.36908s0.60761,-0.66254 1.69074,-1.88183c0.84619,0.59252 1.31683,0.91076 1.31683,0.91076s-0.07878,-0.76764 -0.24205,-2.12811z" fill="#e6e6e6" id="svg_2"/>
  <path d="m221.80557,51.05429a5.00589,5.00589 0 0 0 -5,5l0,535a5.00589,5.00589 0 0 0 5,5l430.99951,0a5.00588,5.00588 0 0 0 5,-5l0,-535a5.00588,5.00588 0 0 0 -5,-5l-430.99951,0z" fill="#e6e6e6" id="svg_3"/>
  <path d="m584.30548,284.67932l-294,0a7.5,7.5 0 0 1 0,-15l294,0a7.5,7.5 0 0 1 0,15z" fill="#fff" id="svg_4"/>
  <path d="m586.82974,144.92932l-195.04853,0c-2.748,0 -4.97573,-3.35791 -4.97573,-7.5s2.22774,-7.5 4.97573,-7.5l195.04853,0c2.74831,0 4.97572,3.35791 4.97572,7.5s-2.22739,7.5 -4.97572,7.5z" fill="#fff" id="svg_5"/>
  <path d="m586.82974,187.92932l-195.04853,0c-2.748,0 -4.97573,-3.35791 -4.97573,-7.5s2.22774,-7.5 4.97573,-7.5l195.04853,0c2.74831,0 4.97572,3.35791 4.97572,7.5s-2.22739,7.5 -4.97572,7.5z" fill="#fff" id="svg_6"/>
  <path d="m584.30548,333.17932l-294,0a7.5,7.5 0 0 1 0,-15l294,0a7.5,7.5 0 0 1 0,15z" fill="#fff" id="svg_7"/>
  <path d="m584.30548,381.67932l-294,0a7.5,7.5 0 0 1 0,-15l294,0a7.5,7.5 0 0 1 0,15z" fill="#fff" id="svg_8"/>
  <path d="m584.30548,430.17932l-294,0a7.5,7.5 0 0 1 0,-15l294,0a7.5,7.5 0 0 1 0,15z" fill="#fff" id="svg_9"/>
  <path d="m584.30548,478.67932l-294,0a7.5,7.5 0 0 1 0,-15l294,0a7.5,7.5 0 0 1 0,15z" fill="#fff" id="svg_10"/>
  <path d="m584.30548,527.17932l-294,0a7.5,7.5 0 0 1 0,-15l294,0a7.5,7.5 0 0 1 0,15z" fill="#fff" id="svg_11"/>
  <circle cx="322.30549" cy="159.42932" r="39.5" fill="#fff" id="svg_12"/>
  <path d="m383.16774,284.67932" fill="#fff" id="svg_13"/>
  <path d="m292.40992,297.9643l-58.90306,31.31555l-0.74561,-26.09629c19.22553,-3.20948 37.51669,-8.7974 54.42941,-17.8946l6.1605,-15.22008a10.31753,10.31753 0 0 1 17.53643,-2.67788l0,0a10.31752,10.31752 0 0 1 -0.90847,14.06885l-17.5692,16.50445z" fill="#ffb8b8" id="svg_14"/>
  <path d="m148.48615,478.76897l0,0a11.57378,11.57378 0 0 1 1.46928,-9.36311l12.93931,-19.85781a22.6122,22.6122 0 0 1 29.335,-7.73927l0,0c-5.438,9.25647 -4.67994,17.37679 1.87806,24.43365a117.63085,117.63085 0 0 0 -27.93606,19.04493a11.57386,11.57386 0 0 1 -17.68559,-6.51839z" fill="#2f2e41" id="svg_15"/>
  <path d="m295.09274,452.80462l0,0a22.20317,22.20317 0 0 1 -18.87085,10.77909l-85.96027,0.65122l-3.728,-21.62265l38.026,-11.18412l-32.06116,-24.60508l35.04359,-41.00845l63.64999,59.32434a22.20316,22.20316 0 0 1 3.9007,27.66565z" fill="#2f2e41" id="svg_16"/>
  <path d="m176.84062,600.68128l-20.13142,0c-18.07509,-123.89772 -36.47383,-248.14186 17.8946,-294.51531l64.12232,10.43852l-8.2017,54.4294l-35.7892,41.00846l-17.8946,188.63893z" fill="#2f2e41" id="svg_17"/>
  <path d="m192.53713,638.74782l0,0a11.57385,11.57385 0 0 1 -9.3632,-1.46873l-19.85856,-12.93812a22.61221,22.61221 0 0 1 -7.741,-29.33451l0,0c9.2568,5.43749 17.37707,4.67891 24.43355,-1.87951a117.6303,117.6303 0 0 0 19.04656,27.93494a11.57385,11.57385 0 0 1 -6.51735,17.68593z" fill="#2f2e41" id="svg_18"/>
  <path d="m264.71325,220.05432l-95.70151,0c-17.6737,-25.00341 -19.748,-48.91343 0,-71.29391c0,-9.89633 12.78255,-17.9189 28.55061,-17.9189l0.00005,0c12.35162,0 23.30262,4.985 27.13873,12.35373l40.01212,76.85908z" fill="#2f2e41" id="svg_19"/>
  <path d="m224.55956,223.40346l-37.28042,-8.9473c6.19168,-12.6739 6.70156,-26.77618 3.728,-41.75406l25.35068,-0.74561c0.79435,18.62539 3.19746,36.02621 8.20174,51.44697z" fill="#ffb8b8" id="svg_20"/>
  <path d="m234.80548,339.05432c-27.13873,18.49307 -46.31417,0.63272 -60.94729,-26.92346c2.03338,-16.86188 -1.259,-37.04061 -7.35671,-58.96635a40.1376,40.1376 0 0 1 24.50567,-48.40124l0,0l32.06116,13.421c27.22362,22.19038 32.582,46.227 22.36825,71.5784l-10.63108,49.29165z" fill="#6c63ff" id="svg_21"/>
  <path d="m156.7092,242.04367l-29.82434,15.65778l52.9382,31.31555l7.366,18.16951a9.63674,9.63674 0 0 1 -5.78926,12.73088l0,0a9.63674,9.63674 0 0 1 -12.76159,-8.54442l-0.74489,-12.66307l-67.2838,-22.20366a15.73308,15.73308 0 0 1 -9.87265,-9.61147l0,0a15.73306,15.73306 0 0 1 5.90261,-18.30259l54.10485,-37.11844l5.96487,30.56993z" fill="#ffb8b8" id="svg_22"/>
  <path d="m186.53353,245.02611c-12.43861,-5.45111 -23.74934,0.47044 -38.026,5.21925l-2.23683,-39.51724c14.17612,-7.55568 27.69209,-9.59281 40.26285,-3.728l-0.00002,38.02599z" fill="#6c63ff" id="svg_23"/>
  <path d="m262.95839,220.05432l-21.10822,0c-13.13752,-24.23557 -12.54109,-67.05554 -40.77728,-57.51207c-18.14071,-10.76664 -7.73195,31.48445 -12.24283,57.51207l-18.357,0c-4.98808,-25.43029 -5.05734,-50.91272 0.81059,-71.63526a9.65549,9.65549 0 0 1 3.51179,-7.05923a19.95187,19.95187 0 0 1 2.94512,-2.2377c6.48684,-4.0867 10.84335,-6.41448 20.32,-6.41448a57.20354,57.20354 0 0 1 15.68763,2.15712c0.6636,0.19439 1.31974,0.403 1.95349,0.62106c0.87239,0.29868 1.71484,0.6258 2.52016,0.97662c4.14562,1.78259 7.40384,4.19573 8.9473,7.2157c17.86479,21.30568 26.9836,48.18669 35.78925,76.37617z" fill="#2f2e41" id="svg_24"/>
  <circle cx="201.41293" cy="167.72864" r="23.80211" fill="#ffb8b8" id="svg_25"/>
  <path d="m225.55507,158.54783c-7.16073,-9.76016 -25.83491,1.88251 -48.28429,10.2009l0,-23.12205c18.46723,-8.12972 29.236,-10.47468 41.48368,-2.04018l6.80061,14.96133z" fill="#2f2e41" id="svg_26"/>
  <circle cx="644.14664" cy="57.65885" r="57.65885" fill="#6c63ff" id="svg_27"/>
  <path d="m620.12247,53.8541a3.80493,3.80493 0 1 0 0,7.60986l20.21972,0l0,20.21924a3.80469,3.80469 0 1 0 7.60938,0l0,-20.21923l20.21972,0a3.80493,3.80493 0 0 0 0,-7.60986l-20.21972,0l0,-20.21974a3.80469,3.80469 0 1 0 -7.60938,0l0,20.21973l-20.21972,0z" fill="#fff" id="svg_28"/>
  <text fill="#273141" stroke-width="0" x="455.34741" y="587.11624" id="svg_29" font-size="24" font-family="'Special Elite'" text-anchor="start" xml:space="preserve" font-weight="bold" stroke="#000" transform="matrix(2.33551 0 0 2.39649 -758.251 -1300.92)">Add form</text>
 </g>

</svg>