<svg width="852.18194" height="617.72966" xmlns="http://www.w3.org/2000/svg">

 <g>
  <title>Layer 1</title>
  <rect id="svg_1" fill="#6c63ff" height="60" width="104" y="555.91177" x="688.01315"/>
  <path id="svg_2" fill="#2f2e41" d="m578.45265,602.03048c-0.93326,3.17542 -1.36642,6.87817 0.572,9.56082a9.65556,9.65556 0 0 0 4.08648,2.99312a29.11229,29.11229 0 0 0 12.98474,1.90521a6.13154,6.13154 0 0 0 4.59336,-1.7636a56.58649,56.58649 0 0 0 19.575,-33.39261a3.16579,3.16579 0 0 0 -0.10416,-2.04893a3.24712,3.24712 0 0 0 -1.36351,-1.15649a30.653,30.653 0 0 0 -7.3105,-3.33839c-14.07833,-3.63466 -29.54528,15.37266 -33.03341,27.24087z"/>
  <path id="svg_3" fill="#2f2e41" d="m726.0949,557.53308a20.73239,20.73239 0 0 0 6.84363,5.21188a9.60793,9.60793 0 0 0 8.36427,-0.14239c3.873,-2.20486 4.97016,-7.3283 4.66109,-11.7745c-0.57168,-8.22318 -4.49982,-15.63344 -9.014,-22.35075c-1.42824,-2.12529 -4.58989,-8.45058 -7.36467,-8.52926c-1.31813,-0.03743 -6.24761,4.74185 -7.58708,5.65154c-4.89361,3.32336 -8.28324,5.7011 -7.26484,12.0804c1.13595,7.11522 6.57337,14.72974 11.3616,19.85308z"/>
  <path id="svg_4" fill="#2f2e41" d="m683.18948,217.42258c-20.83282,-1.61549 -40.73176,-1.0168 -61.602,-2.088c-1.75348,-0.09 -0.90847,19.98632 -2.72541,30.88795c-0.93384,5.60307 -32.34844,333.83714 -28.44922,334.5023a259.06214,259.06214 0 0 0 30.3305,4.49239c4.13352,0.36391 42.663,-213.506 40.81676,-230.88689c5.04453,7.39853 22.81211,41.55923 31.79641,80.85373c11.854,51.84585 15.34346,110.48854 22.71173,107.19934a44.13756,44.13756 0 0 1 18.61108,-14.71954c12.17816,-4.52965 -7.55786,-253.92383 -28.41023,-265.38931c-0.25656,-7.29939 -0.52416,-14.77808 -3.27513,-21.54413c-3.88016,-9.54346 -11.53545,-17.1636 -19.80449,-23.30784z"/>
  <polygon id="svg_5" fill="#3f3d56" points="851.787 617.73 277.706 617.73 277.706 615.548 852.182 615.548 851.787 617.73"/>
  <rect id="svg_6" fill="#e6e6e6" height="92.99491" width="471.01315" y="294.36832"/>
  <rect id="svg_7" fill="#e6e6e6" height="92.99489" width="471.01315" y="147.42601"/>
  <rect id="svg_8" fill="#e6e6e6" height="92.99489" width="471.01315"/>
  <path id="svg_9" fill="#fff" d="m10.04106,82.95337l450.93122,0l0,-72.91209l-450.93122,0l0,72.91209z"/>
  <path id="svg_10" fill="#fff" d="m10.04106,230.70373l450.93122,0l0,-72.9121l-450.93122,0l0,72.9121z"/>
  <path id="svg_11" fill="#fff" d="m10.04097,377.32182l450.93121,0l0,-72.9121l-450.93121,0l0,72.9121z"/>
  <circle id="svg_12" fill="#6c63ff" r="27.77768" cy="45.89359" cx="49.51675"/>
  <rect id="svg_13" fill="#6c63ff" height="6.03863" width="274.15375" y="35.02405" x="115.94168"/>
  <rect id="svg_14" fill="#6c63ff" height="6.03863" width="274.15375" y="50.72448" x="115.94168"/>
  <circle id="svg_15" fill="#ccc" r="27.77768" cy="194.52731" cx="49.51675"/>
  <rect id="svg_16" fill="#ccc" height="6.03863" width="274.15375" y="183.65779" x="115.94168"/>
  <rect id="svg_17" fill="#ccc" height="6.03863" width="274.15375" y="199.35822" x="115.94168"/>
  <circle id="svg_18" fill="#ccc" r="27.77769" cy="341.46966" cx="49.51675"/>
  <rect id="svg_19" fill="#ccc" height="6.03863" width="274.15375" y="330.60012" x="115.94168"/>
  <rect id="svg_20" fill="#ccc" height="6.03863" width="274.15375" y="346.30056" x="115.94168"/>
  <path id="svg_21" fill="#2f2e41" d="m678.05656,58.21582c-10.81253,-18.26981 -32.20421,-19.12126 -32.20421,-19.12126s-20.845,-2.66564 -34.21691,25.1595c-12.4637,25.9353 -29.66522,50.97638 -2.76929,57.04765l4.85817,-15.12083l3.00865,16.24654a105.2364,105.2364 0 0 0 11.50777,0.19667c28.80332,-0.92994 56.23416,0.27208 55.351,-10.06377c-1.17421,-13.74005 4.86863,-36.76532 -5.53518,-54.3445z"/>
  <path id="svg_22" fill="#ffb8b8" d="m638.16826,120.46293c0.05229,2.05642 0.03665,4.22524 -0.98524,6.01055c-2.02578,3.53923 -6.97115,4.069 -9.94583,6.85853c-3.1283,2.93353 -3.48236,7.69451 -3.63146,11.98048c-0.15587,4.481 -0.28811,9.10879 1.34726,13.28362a32.29279,32.29279 0 0 0 3.77277,6.48169q2.72424,3.927 5.49883,7.8186a33.75927,33.75927 0 0 0 3.29259,4.132c3.31272,3.37443 7.8567,5.2423 12.39375,6.575c2.93137,0.86106 6.09649,1.53176 9.00493,0.59629a17.24036,17.24036 0 0 0 5.23659,-3.22a28.0609,28.0609 0 0 0 5.92742,-5.74508c2.44231,-3.5428 3.11831,-7.97785 3.62456,-12.251a264.36284,264.36284 0 0 0 1.74255,-38.08361a9.33377,9.33377 0 0 0 -0.7271,-4.04639c-1.50628,-2.94122 -5.54064,-3.56914 -7.66639,-6.09914c-1.81747,-2.16307 -1.89158,-5.25014 -1.87608,-8.07539l0.03948,-7.19234a3.01284,3.01284 0 0 0 -0.34955,-1.75229a2.96857,2.96857 0 0 0 -2.06313,-0.96257a69.54992,69.54992 0 0 0 -13.5313,-0.90527c-3.672,0.1122 -10.71751,-0.19515 -13.89257,1.85c-2.882,1.8564 0.72645,6.98361 1.394,9.86364a64.262,64.262 0 0 1 1.39392,12.88268z"/>
  <circle id="svg_23" fill="#ffb8b8" r="29.07101" cy="79.04091" cx="646.59652"/>
  <path id="svg_24" fill="#6c63ff" d="m640.01315,141.91176c-15.00419,-47.548 -22.90913,19.23731 -32.36916,37.47249c0.08794,12.57282 0.42873,47.34691 3.36916,60.52751c11.42255,51.2019 67.98975,47.18234 85,4c9.06116,-23.00281 -11.03988,-80.01159 -10.35862,-106.61165c-24.91045,-25.24103 -26.44756,54.83643 -45.64138,4.61165z"/>
  <path id="svg_25" fill="#575a88" d="m623.54257,125.60243c-32.5112,15.80158 -17.00106,58.25549 -28.78537,86.03937c-9.412,38.11869 -33.34828,50.10538 21.37992,50.99288c11.79191,-34.84244 0.274,-72.68949 16.35195,-108.16748c1.10709,-13.89531 5.87311,-19.12078 5.45081,-30.88794c-3.15219,-4.88372 -11.31891,0.5102 -14.39731,2.02317z"/>
  <polygon id="svg_26" fill="#2f2e41" points="673.276 56.455 652.142 45.384 622.957 49.913 616.919 76.583 631.95 76.004 636.149 66.206 636.149 75.842 643.084 75.576 647.111 59.977 649.626 76.583 674.283 76.079 673.276 56.455"/>
  <path id="svg_27" fill="#575a88" d="m660.20402,138.98489c16.73347,-1.95292 0.41934,-22.04869 13.70111,-21.70725c39.771,-6.68935 51.66932,17.94352 36.54421,52.32424c-13.86474,27.5378 35.18011,66.22151 7.7812,81.63023c-9.72368,3.56942 -23.64729,14.79719 -33.15053,9.90892c-15.25743,-38.34838 -15.80871,-82.16313 -24.87599,-122.15614z"/>
  <path id="svg_28" fill="#ffb8b8" d="m706.77897,248.46007c-5.82631,2.78637 -10.43525,7.21738 -14.3352,12.36516c-0.8256,1.08976 0.28174,3.12237 2.75591,3.08907c2.30214,-0.031 3.67748,-2.98285 5.97954,-3.01385a99.973,99.973 0 0 0 3.80585,18.14512c4.5928,-4.03319 7.343,-9.71068 9.97425,-15.22764l5.20118,-10.90548c1.90951,-4.00372 3.8198,-8.00921 5.541,-12.0974a8.728,8.728 0 0 0 0.85313,-3.04923c0.22651,-7.03534 -6.70988,-7.078 -9.70133,-2.67506c-3.27186,4.81576 -4.29089,10.60329 -10.07433,13.36931z"/>
  <path id="svg_29" fill="#575a88" d="m707.97515,127.50739c4.44717,4.62094 8.92552,9.28113 12.3778,14.686s21.30979,54.01449 22.03379,55.04514c2.57821,3.80469 -0.43333,13.64043 -0.58546,14.20364c-0.29826,1.76623 -4.02357,19.403 -4.957,23.29768c-0.65318,2.72541 -0.64487,5.56312 -1.07237,8.33289s-1.38916,5.618 -3.52262,7.43532a2.207,2.207 0 0 1 -0.97024,0.54292c-1.18333,0.23092 -1.98941,-1.138 -2.40367,-2.27026c-1.28979,-3.5255 -2.592,-7.11956 -4.866,-10.10644s-5.72077,-5.32608 -9.4748,-5.31468a5.0553,5.0553 0 0 1 0.36754,-4.613c0.75222,-1.41868 1.85492,-2.621 2.68463,-3.99579a18.38916,18.38916 0 0 0 2.112,-6.03621a39.606,39.606 0 0 0 -5.22938,-28.24962a27.05174,27.05174 0 0 0 -4.36366,-5.4545c-1.833,-1.71777 -3.97763,-3.0988 -5.67,-4.95532a19.37342,19.37342 0 0 1 -4.51165,-10.94685a57.72075,57.72075 0 0 1 0.3181,-12.00988c0.76131,-7.901 1.7394,-15.81349 2.868,-23.67045a8.82792,8.82792 0 0 1 0.78338,-2.95616c0.88603,-1.6526 2.38455,-2.167 4.08161,-2.96443z"/>
  <path id="svg_30" fill="#ffb8b8" d="m610.91514,236.66932c-2.99145,-4.40292 -9.92784,-4.36028 -9.70133,2.67506a8.728,8.728 0 0 0 0.85313,3.04923c1.72123,4.08819 3.63152,8.09368 5.541,12.0974l5.20118,10.90548c2.63123,5.517 5.38145,11.19445 9.97425,15.22764a99.973,99.973 0 0 0 3.80585,-18.14512c2.30206,0.031 3.67741,2.98288 5.97955,3.01385c2.47417,0.0333 3.5815,-1.99931 2.7559,-3.08907c-3.89995,-5.14778 -8.50888,-9.57879 -14.3352,-12.36516c-5.78341,-2.76602 -6.80245,-8.55355 -10.07433,-13.36931z"/>
  <path id="svg_31" fill="#575a88" d="m623.87497,132.05034a8.82815,8.82815 0 0 1 0.78337,2.95616c1.12857,7.857 2.10666,15.76945 2.868,23.67045a57.72007,57.72007 0 0 1 0.31811,12.00988a19.3735,19.3735 0 0 1 -4.51166,10.94685c-1.69234,1.85652 -3.837,3.23755 -5.67,4.95532a27.05174,27.05174 0 0 0 -4.36366,5.4545a39.606,39.606 0 0 0 -5.22938,28.24962a18.38947,18.38947 0 0 0 2.112,6.03621c0.82971,1.37479 1.93241,2.57711 2.68463,3.99579a5.0553,5.0553 0 0 1 0.36754,4.613c-3.754,-0.0114 -7.20071,2.32781 -9.4748,5.31468s-3.57626,6.58094 -4.86605,10.10644c-0.41426,1.13226 -1.22034,2.50118 -2.40367,2.27026a2.207,2.207 0 0 1 -0.97024,-0.54292c-2.13346,-1.81736 -3.09511,-4.66555 -3.52261,-7.43532s-0.4192,-5.60748 -1.07238,-8.33289c-0.93339,-3.89468 -4.6587,-21.53145 -4.957,-23.29768c-0.15212,-0.56321 -3.16367,-10.399 -0.58545,-14.20364c0.724,-1.03065 18.5815,-49.64032 22.03378,-55.04514s7.93064,-10.065 12.3778,-14.68595c1.69707,0.7974 3.1956,1.31186 4.08167,2.96438z"/>
  <text stroke-width="0" transform="matrix(2.43404 0 0 2.55937 -419.815 -935.67)" stroke="#000" font-weight="bold" xml:space="preserve" text-anchor="start" font-family="'Special Elite'" font-size="24" id="svg_32" y="602.92499" x="290.6827" fill="#1A333F">My forms</text>
 </g>
</svg>