<svg width="539.22826" height="727.77805" xmlns="http://www.w3.org/2000/svg">

 <g>
  <title>Layer 1</title>
  <path id="svg_1" fill="#3f3d56" d="m539.22827,172.94725l-3.99878,0l0,-109.54534a63.40184,63.40184 0 0 0 -63.40179,-63.40189l-232.08673,0a63.40185,63.40185 0 0 0 -63.402,63.40172l0,600.97439a63.40186,63.40186 0 0 0 63.40181,63.40189l232.08661,0a63.40186,63.40186 0 0 0 63.402,-63.40167l0,-413.45286l3.99884,0l0.00004,-77.97624z"/>
  <path id="svg_2" fill="#fff" d="m474.38574,16.49502l-30.295,0a22.49484,22.49484 0 0 1 -20.82715,30.99052l-132.95945,0a22.4948,22.4948 0 0 1 -20.82715,-30.99056l-28.29559,0a47.34781,47.34781 0 0 0 -47.34784,47.34774l0,600.09255a47.34781,47.34781 0 0 0 47.34778,47.34784l233.2044,0a47.3478,47.3478 0 0 0 47.34784,-47.34778l0,0l0,-600.09261a47.34776,47.34776 0 0 0 -47.34784,-47.3477z"/>
  <rect id="svg_3" fill="#e6e6e6" height="458.80184" width="268.56693" y="134.48811" x="223.5001"/>
  <path id="svg_4" fill="#ffb8b8" d="m133.30438,231.97184c12.31092,10.25938 -12.31092,42.17755 -12.31092,42.17755s58.47683,2.2799 53.86023,2.2799s-8.46376,-48.44727 -8.46376,-48.44727s-45.39647,-6.26956 -33.08555,3.98982z"/>
  <path id="svg_5" fill="#2f2e41" d="m109.5289,361.80345l53,19l29,12s19,52 28,75s-20,60 -20,60s3,11 0,16a54.36,54.36 0 0 0 -4,8c-1,2 -12,1 -24,0s-1,-20 -1,-20s10,-40 11,-41c0.9339,-0.9339 3.61212,-7.973 0.704,-10.5285a25.95,25.95 0 0 1 -6.53687,-8.12989a30.09051,30.09051 0 0 0 -5.16717,-7.34164s-31.69458,-46.74072 -47.34729,-57.37036s-52,2 -52,2s17.34729,26.37036 17.34729,32.37036s1,9 4,11s2,6 2,10s3,12 8,16s6,8 5,16s-28,4 -28,4l-13,-25s-20,-32 -33,-66c-6.5,-17 0.25,-28.5 8.625,-35.75a41.39094,41.39094 0 0 1 29.02036,-9.7644l47.00739,2.14408l-33.65271,-9.62963l25,6.99998z"/>
  <path id="svg_6" fill="#ffb8b8" d="m284.5289,272.80343l57,-26s20,-34 8,-38s-22,30 -22,30l-41,8l-2,26z"/>
  <path id="svg_7" fill="#ffb8b8" d="m58.5289,290.80343s-29,26 -30,29s-19,11 -27,-3s18,-13 18,-13l18,-23l21,10z"/>
  <path id="svg_8" fill="#6c63ff" d="m29.18161,275.43302l31,23l51,-18c-9.47913,29.67829 -2.05243,61.10947 -33.18818,79.31473l118,40c-10.44354,-42.04852 6.04987,-76.85827 20.18818,-119.31473c22.39477,-11.54092 50.484,-8.8113 81,0l0,-41l-124,7l-19.18815,10.31472l-22.81185,-6.31472c-33.02161,-5.35343 -74.27847,6.34606 -102,25z"/>
  <path id="svg_9" fill="#2f2e41" d="m105.5289,493.80342c3,2 8,21 9,28s-8,10 -13,11s-4,4 -7,7s-14,4 -29,1s7,-22 9,-23s8,-24 8,-24s20,-2 23,0z"/>
  <path id="svg_10" fill="#2f2e41" d="m188.52896,548.80342l8,21l7.56408,11.34613a25.69633,25.69633 0 0 1 3.63166,20.90967c-1.27393,4.68853 -3.91455,9.1192 -9.1958,10.7442c-13,4 -21,-21 -21,-21s-7,-14 -12,-27s4,-20 4,-20l19.00006,4z"/>
  <circle id="svg_11" fill="#ffb8b8" r="23.99585" cy="220.66222" cx="150.17537"/>
  <path id="svg_12" fill="#2f2e41" d="m177.37702,214.73225a22.82668,22.82668 0 0 0 -1.54793,-18.547c-3.08238,-5.46637 -9.01834,-10.59053 -20.43009,-10.87955c-24.89836,-0.6306 -35.68764,18.14244 -34.28485,23.64742s6.42167,18.60263 6.42167,18.60263s-3.11229,-12.61195 3.1123,-13.87315s30.34488,-6.306 37.34754,-0.6306a14.2327,14.2327 0 0 1 5.44652,13.24256l3.93484,-11.56231z"/>
  <circle id="svg_13" fill="#e6e6e6" r="26" cy="651.74778" cx="358.1816"/>
  <text transform="matrix(1.27117 0 0 1.38172 -95.1084 -208.08)" stroke="#000" font-style="normal" font-weight="bold" xml:space="preserve" text-anchor="start" font-family="'Special Elite'" font-size="24" id="svg_14" y="268.95325" x="365.59941" stroke-width="0" fill="#083734">Log out</text>
 </g>
</svg>